<?xml version="1.0" encoding="UTF-8"?>
<svg version="1.1" xmlns="http://www.w3.org/2000/svg" width="500" height="500">
<path d="M0 0 C3.67222384 2.31509764 5.93795754 4.93841508 7.875 8.8125 C8.13285684 13.36797083 7.87351462 16.6905636 5.875 20.8125 C5.215 20.8125 4.555 20.8125 3.875 20.8125 C3.875 21.4725 3.875 22.1325 3.875 22.8125 C1.77483377 23.98691535 -0.32958755 25.15214012 -2.4375 26.3125 C-3.03240234 26.64636719 -3.62730469 26.98023438 -4.24023438 27.32421875 C-7.08328844 28.88075114 -8.83160988 29.8125 -12.125 29.8125 C-12.125 30.4725 -12.125 31.1325 -12.125 31.8125 C-13.053125 32.286875 -13.98125 32.76125 -14.9375 33.25 C-19.62887503 35.89789266 -23.58698584 39.4008706 -27.671875 42.88671875 C-30.125 44.8125 -30.125 44.8125 -33.125 45.8125 C-33.125 46.4725 -33.125 47.1325 -33.125 47.8125 C-33.785 47.8125 -34.445 47.8125 -35.125 47.8125 C-35.125 48.4725 -35.125 49.1325 -35.125 49.8125 C-35.785 49.8125 -36.445 49.8125 -37.125 49.8125 C-37.125 50.4725 -37.125 51.1325 -37.125 51.8125 C-37.785 51.8125 -38.445 51.8125 -39.125 51.8125 C-39.434375 52.43125 -39.74375 53.05 -40.0625 53.6875 C-40.75 55.0625 -41.4375 56.4375 -42.125 57.8125 C-42.785 57.8125 -43.445 57.8125 -44.125 57.8125 C-44.37765625 58.34746094 -44.6303125 58.88242188 -44.890625 59.43359375 C-46.40377105 62.34975181 -48.12977659 65.09143631 -49.875 67.875 C-50.95731619 69.63103038 -52.03474207 71.38994681 -53.10986328 73.15039062 C-54.00614826 74.61790099 -54.90702258 76.08260628 -55.80859375 77.546875 C-68.6319958 99.52984994 -71.30812551 128.20754787 -66.125 152.8125 C-65.88007813 154.06289063 -65.63515625 155.31328125 -65.3828125 156.6015625 C-63.21082797 166.86478612 -59.27171906 175.70561092 -54.125 184.8125 C-53.2896875 186.29363281 -53.2896875 186.29363281 -52.4375 187.8046875 C-37.18854881 213.09741903 -10.94460627 233.52926265 17.875 240.8125 C21.34627715 241.45679946 24.83189429 241.96086287 28.328125 242.44921875 C29.24932129 242.5824353 30.17051758 242.71565186 31.11962891 242.85290527 C33.37075821 243.17772776 35.62248297 243.49747117 37.875 243.8125 C38.01458679 235.88427616 38.1209141 227.95657347 38.18587303 220.027421 C38.2170651 216.34474056 38.25930926 212.66290638 38.32763672 208.98071289 C38.39327198 205.42095172 38.42879703 201.86199961 38.44426346 198.30167961 C38.46059585 196.29586441 38.50736428 194.29037066 38.55477905 192.28504944 C38.55772871 184.2102856 37.50835612 178.81435839 31.875 172.8125 C29.4923681 170.93816456 29.4923681 170.93816456 26.875 170.0625 C25.92882812 169.68480469 24.98265625 169.30710937 24.0078125 168.91796875 C21.79827618 168.13829446 19.58426817 167.37123644 17.3671875 166.61328125 C3.4628177 161.853362 3.4628177 161.853362 -2.125 156.8125 C-2.125 156.1525 -2.125 155.4925 -2.125 154.8125 C-2.785 154.8125 -3.445 154.8125 -4.125 154.8125 C-4.125 154.1525 -4.125 153.4925 -4.125 152.8125 C-4.785 152.8125 -5.445 152.8125 -6.125 152.8125 C-11.11817859 144.41202659 -14.87399417 136.79908899 -14.125 126.8125 C-12.0294601 124.7169601 -7.68934311 125.52308631 -4.8125 125.5 C9.17883682 125.5 19.57791813 129.74393945 29.71875 139.60546875 C33.32767372 143.62868218 36.14525852 148.16227669 38.875 152.8125 C37.92635765 146.01575654 36.90117284 139.99093621 33.875 133.8125 C33.20223284 132.1482865 32.53293165 130.48263418 31.875 128.8125 C31.215 128.8125 30.555 128.8125 29.875 128.8125 C29.875 128.1525 29.875 127.4925 29.875 126.8125 C29.32328125 126.53664063 28.7715625 126.26078125 28.203125 125.9765625 C20.625 122.1875 20.625 122.1875 17.4375 120.58203125 C14.90502568 119.3241246 12.36858223 118.09422646 9.8125 116.88671875 C2.31440032 113.30698649 -4.29441223 109.88923395 -10.125 103.8125 C-10.68574219 103.29300781 -11.24648437 102.77351563 -11.82421875 102.23828125 C-13.125 100.8125 -13.125 100.8125 -13.125 98.8125 C-13.785 98.8125 -14.445 98.8125 -15.125 98.8125 C-15.75809191 97.62929424 -16.38096718 96.44062152 -17 95.25 C-17.34804687 94.58871094 -17.69609375 93.92742187 -18.0546875 93.24609375 C-20.98039542 86.59384545 -21.41119056 80.64208006 -21.3125 73.5 C-21.3115332 72.14165039 -21.3115332 72.14165039 -21.31054688 70.75585938 C-21.26583759 64.09417517 -21.26583759 64.09417517 -20.125 61.8125 C-9.84735419 58.60073568 3.34752741 61.30711404 12.75 66 C13.78125 66.598125 14.8125 67.19625 15.875 67.8125 C15.875 68.4725 15.875 69.1325 15.875 69.8125 C17.525 70.4725 19.175 71.1325 20.875 71.8125 C20.875 72.4725 20.875 73.1325 20.875 73.8125 C21.535 73.8125 22.195 73.8125 22.875 73.8125 C32.23820871 83.59331661 40.13031608 100.28074762 39.875 113.8125 C37.04879401 114.32635563 35.38496394 114.15388082 32.984375 112.546875 C31.1751174 111.03180562 29.45325781 109.56814125 27.875 107.8125 C27.875 107.1525 27.875 106.4925 27.875 105.8125 C27.2975 105.544375 26.72 105.27625 26.125 105 C23.81949957 103.78320811 21.85443808 102.50916121 19.875 100.8125 C19.875 100.1525 19.875 99.4925 19.875 98.8125 C16.89509661 97.57087359 14.0135057 96.55688917 10.875 95.8125 C12.83031865 97.7947267 14.78905666 99.77335116 16.75 101.75 C17.58337891 102.59594727 17.58337891 102.59594727 18.43359375 103.45898438 C21.3671571 106.51110028 21.3671571 106.51110028 24.875 108.8125 C24.875 109.4725 24.875 110.1325 24.875 110.8125 C25.71804687 111.17601562 25.71804687 111.17601562 26.578125 111.546875 C37.09236985 117.34043849 42.72222866 128.50695732 47.875 138.8125 C48.52855469 137.43578125 48.52855469 137.43578125 49.1953125 136.03125 C56.23207126 121.44105435 56.23207126 121.44105435 60.875 116.8125 C61.535 116.8125 62.195 116.8125 62.875 116.8125 C62.875 116.1525 62.875 115.4925 62.875 114.8125 C63.535 114.8125 64.195 114.8125 64.875 114.8125 C64.875 114.1525 64.875 113.4925 64.875 112.8125 C66.5126272 111.35847658 68.21234196 109.97401322 69.9375 108.625 C77.91564128 102.63202202 77.91564128 102.63202202 83.875 94.8125 C79.14691912 97.32127761 75.28740061 100.00561247 71.35546875 103.640625 C69.875 104.8125 69.875 104.8125 67.875 104.8125 C67.875 105.4725 67.875 106.1325 67.875 106.8125 C65.89239574 108.49982277 63.8917658 110.16616057 61.875 111.8125 C61.545 112.4725 61.215 113.1325 60.875 113.8125 C58.895 113.8125 56.915 113.8125 54.875 113.8125 C55.35975913 107.4099021 56.51216663 102.24954692 59.0625 96.375 C59.37276123 95.64289307 59.68302246 94.91078613 60.00268555 94.15649414 C62.45518316 88.49731685 65.02071395 82.66913908 68.875 77.8125 C69.535 77.8125 70.195 77.8125 70.875 77.8125 C70.875 77.1525 70.875 76.4925 70.875 75.8125 C71.535 75.8125 72.195 75.8125 72.875 75.8125 C73.13539063 75.214375 73.39578125 74.61625 73.6640625 74 C77.3944031 67.2613202 84.99589756 64.75858392 91.9453125 62.57421875 C96.64664879 61.35187131 101.1420049 60.67227118 106 60.6875 C106.82757813 60.68492187 107.65515625 60.68234375 108.5078125 60.6796875 C110.76245079 60.80618536 112.71193455 61.18451326 114.875 61.8125 C116.98687159 74.2197456 116.04162197 85.30174687 110.875 96.8125 C110.215 96.8125 109.555 96.8125 108.875 96.8125 C108.813125 97.369375 108.75125 97.92625 108.6875 98.5 C106.95458058 103.43215527 101.99286593 106.80757081 97.875 109.8125 C97.215 109.8125 96.555 109.8125 95.875 109.8125 C95.875 110.4725 95.875 111.1325 95.875 111.8125 C94.83601562 112.25980469 93.79703125 112.70710938 92.7265625 113.16796875 C85.61095413 116.2476423 78.55922377 119.34674815 71.6953125 122.96484375 C69.875 123.8125 69.875 123.8125 67.875 123.8125 C67.875 124.4725 67.875 125.1325 67.875 125.8125 C67.153125 126.3075 66.43125 126.8025 65.6875 127.3125 C60.19289458 132.19659371 57.3504866 139.70333731 55.875 146.8125 C55.8479558 149.1456766 55.84455577 151.47936529 55.875 153.8125 C56.49375 152.52666016 56.49375 152.52666016 57.125 151.21484375 C63.10008308 139.38471275 71.34866435 131.02889469 84.20703125 126.6875 C88.01605222 125.77885176 91.59383607 125.36764358 95.5 125.125 C96.77101563 125.03863281 98.04203125 124.95226562 99.3515625 124.86328125 C102.41667895 124.81910551 104.92079636 125.0598006 107.875 125.8125 C108.48699665 136.6697739 106.07233685 145.41560701 98.875 153.8125 C97.885 154.1425 96.895 154.4725 95.875 154.8125 C95.875 155.4725 95.875 156.1325 95.875 156.8125 C95.215 156.8125 94.555 156.8125 93.875 156.8125 C93.875 157.4725 93.875 158.1325 93.875 158.8125 C85.38109895 163.28561949 77.0928438 167.01801 67.875 169.8125 C65.87336918 170.47425411 63.87293379 171.13966642 61.875 171.8125 C61.875 172.4725 61.875 173.1325 61.875 173.8125 C61.215 173.8125 60.555 173.8125 59.875 173.8125 C59.58625 174.555 59.2975 175.2975 59 176.0625 C57.875 178.8125 57.875 178.8125 56.81987 180.65885925 C55.6772905 183.26313895 55.62764042 185.18082702 55.63208008 188.02075195 C55.62900345 189.05895584 55.62592682 190.09715973 55.62275696 191.16682434 C55.62994247 192.28353012 55.63712799 193.4002359 55.64453125 194.55078125 C55.64498947 195.70491013 55.64544769 196.859039 55.6459198 198.04814148 C55.64894065 200.4900312 55.65682194 202.93191902 55.66918945 205.3737793 C55.68737879 209.10016765 55.6896995 212.82630637 55.68945312 216.55273438 C55.69437125 218.92708547 55.70020084 221.30143489 55.70703125 223.67578125 C55.70870049 225.34173088 55.70870049 225.34173088 55.71040344 227.04133606 C55.74305101 232.40251996 55.93199309 237.53119097 56.875 242.8125 C62.51586705 242.97636876 67.46419476 242.5280063 72.9375 241.1875 C73.67137939 241.00928711 74.40525879 240.83107422 75.16137695 240.64746094 C93.5015516 235.98099093 112.30264012 226.74893412 125.61328125 213.01953125 C126.875 211.8125 126.875 211.8125 128.875 211.8125 C129.143125 211.22984375 129.41125 210.6471875 129.6875 210.046875 C130.88980991 207.78463399 132.21325913 206.00673682 133.875 204.0625 C134.390625 203.44890625 134.90625 202.8353125 135.4375 202.203125 C136.875 200.8125 136.875 200.8125 138.875 200.8125 C139.11734375 200.28398437 139.3596875 199.75546875 139.609375 199.2109375 C140.90424463 196.75707963 142.39404571 194.49396194 143.94628906 192.19677734 C154.86206317 175.90450969 161.48555569 156.53507263 161.875 136.8125 C161.91367187 135.80574219 161.95234375 134.79898438 161.9921875 133.76171875 C162.45047024 112.909854 158.30077567 92.87646015 147.875 74.8125 C147.51744629 74.19213867 147.15989258 73.57177734 146.79150391 72.93261719 C142.20759559 65.12697053 137.05419164 58.41239885 130.74609375 51.921875 C128.875 49.8125 128.875 49.8125 128.875 47.8125 C128.3078125 47.565 127.740625 47.3175 127.15625 47.0625 C123.65587911 45.14448855 121.00048724 42.39514565 118.09375 39.6875 C116.07289547 37.9797356 114.28637444 36.86473612 111.875 35.8125 C111.875 35.1525 111.875 34.4925 111.875 33.8125 C108.905 32.8225 108.905 32.8225 105.875 31.8125 C105.875 31.1525 105.875 30.4925 105.875 29.8125 C105.34390625 29.71066406 104.8128125 29.60882813 104.265625 29.50390625 C101.1728216 28.60941899 98.49048432 27.21388873 95.625 25.75 C94.54734375 25.20214844 93.4696875 24.65429688 92.359375 24.08984375 C91.53953125 23.66832031 90.7196875 23.24679688 89.875 22.8125 C89.875 22.1525 89.875 21.4925 89.875 20.8125 C89.215 20.8125 88.555 20.8125 87.875 20.8125 C85.86650426 16.66997753 85.39237008 13.3974842 85.875 8.8125 C88.61573416 3.53404903 91.70622418 1.39688791 96.875 -1.1875 C111.50253716 -2.17501306 128.27030939 10.759197 138.875 19.8125 C138.875 20.4725 138.875 21.1325 138.875 21.8125 C139.514375 22.080625 140.15375 22.34875 140.8125 22.625 C142.875 23.8125 142.875 23.8125 143.875 26.8125 C145.87516466 28.02132096 145.87516466 28.02132096 147.875 28.8125 C147.875 29.4725 147.875 30.1325 147.875 30.8125 C148.535 30.8125 149.195 30.8125 149.875 30.8125 C149.875 31.4725 149.875 32.1325 149.875 32.8125 C150.535 32.8125 151.195 32.8125 151.875 32.8125 C151.875 33.4725 151.875 34.1325 151.875 34.8125 C152.535 34.8125 153.195 34.8125 153.875 34.8125 C153.875 35.4725 153.875 36.1325 153.875 36.8125 C154.535 36.8125 155.195 36.8125 155.875 36.8125 C158.78937567 40.28785878 161.29144898 44.08727414 163.875 47.8125 C164.5659375 48.79605469 165.256875 49.77960938 165.96875 50.79296875 C181.93132773 74.03079825 189.29737517 100.58288651 189.13574219 128.66040039 C189.12499471 130.87609089 189.13571925 133.09097405 189.1484375 135.30664062 C189.15657114 143.6476879 188.5780972 151.62384648 186.875 159.8125 C186.66359375 160.95203125 186.4521875 162.0915625 186.234375 163.265625 C179.82737764 192.67210006 161.62836841 223.13152256 136.875 240.8125 C136.215 240.8125 135.555 240.8125 134.875 240.8125 C134.875 241.4725 134.875 242.1325 134.875 242.8125 C133.32128906 244.04589844 133.32128906 244.04589844 131.140625 245.421875 C130.34454834 245.92654297 129.54847168 246.43121094 128.72827148 246.95117188 C127.86919189 247.48291016 127.0101123 248.01464844 126.125 248.5625 C124.82187866 249.37557617 124.82187866 249.37557617 123.49243164 250.20507812 C90.55399136 270.53888358 52.23414989 277.57070309 14.25 269.1875 C-4.48272826 264.57691675 -26.38939272 255.56612501 -41.125 242.8125 C-41.125 242.1525 -41.125 241.4925 -41.125 240.8125 C-41.68574219 240.56886719 -42.24648437 240.32523438 -42.82421875 240.07421875 C-45.57229774 238.56720769 -47.62537007 236.74050785 -49.9375 234.625 C-51.15373047 233.52091797 -51.15373047 233.52091797 -52.39453125 232.39453125 C-58.11178169 226.98808985 -63.36778245 221.57916316 -68.0625 215.25 C-68.57828613 214.55600098 -69.09407227 213.86200195 -69.62548828 213.14697266 C-79.30881175 199.8946787 -86.41249855 185.48838103 -90.875 169.6875 C-91.07375732 168.98399414 -91.27251465 168.28048828 -91.47729492 167.55566406 C-94.75983109 155.30348876 -95.53002144 143.42499812 -95.5 130.8125 C-95.49978851 129.99368347 -95.49957703 129.17486694 -95.49935913 128.33123779 C-95.46696333 115.76504623 -94.71977294 103.92602822 -91.125 91.8125 C-90.94308105 91.15813965 -90.76116211 90.5037793 -90.57373047 89.82958984 C-85.92846552 73.31170848 -78.04904368 58.68897666 -68.125 44.8125 C-67.49851563 43.91789062 -66.87203125 43.02328125 -66.2265625 42.1015625 C-64.92380497 40.29041178 -63.53584373 38.54078357 -62.125 36.8125 C-61.465 36.8125 -60.805 36.8125 -60.125 36.8125 C-60.125 36.1525 -60.125 35.4925 -60.125 34.8125 C-59.465 34.8125 -58.805 34.8125 -58.125 34.8125 C-58.125 34.1525 -58.125 33.4925 -58.125 32.8125 C-57.465 32.8125 -56.805 32.8125 -56.125 32.8125 C-56.125 32.1525 -56.125 31.4925 -56.125 30.8125 C-55.465 30.8125 -54.805 30.8125 -54.125 30.8125 C-53.898125 30.255625 -53.67125 29.69875 -53.4375 29.125 C-51.74949964 26.15090412 -49.65823483 24.09241135 -47.125 21.8125 C-46.465 21.8125 -45.805 21.8125 -45.125 21.8125 C-45.125 21.1525 -45.125 20.4925 -45.125 19.8125 C-38.6850448 14.26607496 -31.65077148 9.72535582 -24.125 5.8125 C-22.56137674 4.9186287 -20.99887589 4.02279114 -19.4375 3.125 C-12.95332874 -0.45480288 -7.24728783 -2.75396938 0 0 Z " fill="#6B8235" transform="translate(203.125,114.1875)"/>
<path d="M0 0 C1.20833975 5.09228895 2.19459118 10.13086703 2.9375 15.3125 C4.8131908 27.61816845 8.59439109 38.61278495 13.29150391 50.08398438 C14.01310506 52.03544057 14.53292747 53.97395317 15 56 C15.66 56 16.32 56 17 56 C17 56.99 17 57.98 17 59 C17.66 59 18.32 59 19 59 C23 64.41176471 23 64.41176471 23 67 C23.66 67 24.32 67 25 67 C26.41015625 68.50390625 26.41015625 68.50390625 28.0625 70.5625 C31.41113866 74.53989149 35.06430844 77.53030489 39.27734375 80.5546875 C39.84582031 81.03164063 40.41429687 81.50859375 41 82 C41 82.66 41 83.32 41 84 C41.54398438 84.0928125 42.08796875 84.185625 42.6484375 84.28125 C51.90554834 87.11066594 62.6324351 95.97302594 68.28515625 103.7734375 C70.62308978 108.40580812 70.65222365 113.94314909 70 119 C68.50163577 122.74918212 68.50163577 122.74918212 66 124 C49.98607311 124.42949229 35.49209213 116.66444343 22 109 C22 108.34 22 107.68 22 107 C21.30519531 106.79117188 20.61039063 106.58234375 19.89453125 106.3671875 C16.09451357 104.57230735 13.60959194 102.10178696 10.6875 99.125 C10.11572021 98.54492188 9.54394043 97.96484375 8.95483398 97.3671875 C-8.43650037 79.28550636 -14.62954468 57.79881182 -14.47705078 33.31542969 C-14.18612315 21.16879004 -12.57821563 10.42414091 -6 0 C-3.50907189 -1.24546405 -2.58919267 -0.7767578 0 0 Z " fill="#6C8337" transform="translate(168,207)"/>
<path d="M0 0 C2.25 0.0625 2.25 0.0625 5 1 C6.89496058 3.41176801 7.85641505 5.19798906 9 8 C9.37511719 8.90621094 9.75023437 9.81242188 10.13671875 10.74609375 C17.22328671 31.85660673 14.89367384 57.38875723 5.3125 77.25 C1.18088902 85.32743217 -4.07466065 94.02714285 -11 100 C-11.66 100 -12.32 100 -13 100 C-13 100.66 -13 101.32 -13 102 C-13.66 102 -14.32 102 -15 102 C-15 102.66 -15 103.32 -15 104 C-15.66 104 -16.32 104 -17 104 C-17 104.66 -17 105.32 -17 106 C-28.9799253 115.86982482 -49.00370528 125.86558631 -64.84375 124.72265625 C-68 124 -68 124 -69.9375 121.9375 C-71.88412176 116.55566337 -71.53181269 112.51946483 -69.6875 107.25 C-68.28970007 104.55794088 -67.04982539 102.22807108 -65 100 C-64.34 100 -63.68 100 -63 100 C-63 99.34 -63 98.68 -63 98 C-60.98801629 96.45369798 -58.98372421 95.02776002 -56.875 93.625 C-56.02035156 93.04492188 -56.02035156 93.04492188 -55.1484375 92.453125 C-54.0040487 91.67806167 -52.85657727 90.9075302 -51.70605469 90.14160156 C-50.56441994 89.37767997 -49.42961646 88.60345388 -48.30175781 87.81933594 C-44.2155837 85 -44.2155837 85 -42 85 C-42 84.34 -42 83.68 -42 83 C-40.3203125 81.4921875 -40.3203125 81.4921875 -38.125 79.875 C-37.40570313 79.33617187 -36.68640625 78.79734375 -35.9453125 78.2421875 C-34 77 -34 77 -32 77 C-32 76.34 -32 75.68 -32 75 C-31.34 75 -30.68 75 -30 75 C-30 74.34 -30 73.68 -30 73 C-28.3545622 71.31237149 -26.68711423 69.6459651 -25 68 C-24.67 67.34 -24.34 66.68 -24 66 C-23.34 66 -22.68 66 -22 66 C-22 65.34 -22 64.68 -22 64 C-21.34 64 -20.68 64 -20 64 C-19.88011719 63.41863281 -19.76023437 62.83726562 -19.63671875 62.23828125 C-18.9738501 59.90807429 -18.07028644 58.25124669 -16.8125 56.1875 C-8.71723616 41.89210634 -4.12248272 25.94324965 -2.68261719 9.63330078 C-2.34673457 6.01524215 -1.94617079 3.11226486 0 0 Z " fill="#6B8235" transform="translate(333,206)"/>
<path d="M0 0 C3.73701411 1.30360957 5.82071994 3.20405855 8.6875 5.9375 C8.6875 6.5975 8.6875 7.2575 8.6875 7.9375 C9.3475 7.9375 10.0075 7.9375 10.6875 7.9375 C15.6875 13.41369048 15.6875 13.41369048 15.6875 15.9375 C16.3475 15.9375 17.0075 15.9375 17.6875 15.9375 C23.71919576 25.14183084 26.09832185 33.85936856 23.9375 44.8125 C22.88916624 48.6970792 21.3914221 52.29730279 19.6875 55.9375 C19.0275 55.9375 18.3675 55.9375 17.6875 55.9375 C17.543125 56.55625 17.39875 57.175 17.25 57.8125 C16.6875 59.9375 16.6875 59.9375 15.6875 61.9375 C15.0275 61.9375 14.3675 61.9375 13.6875 61.9375 C13.460625 62.494375 13.23375 63.05125 13 63.625 C11.26661553 66.67905835 9.41180394 68.7200433 6.6875 70.9375 C5.0375 70.6075 3.3875 70.2775 1.6875 69.9375 C1.0275 62.0175 0.3675 54.0975 -0.3125 45.9375 C-1.87792443 47.50292443 -1.49416618 49.09613113 -1.55859375 51.26953125 C-1.59146484 52.15060547 -1.62433594 53.03167969 -1.65820312 53.93945312 C-1.71901464 55.80132066 -1.77635152 57.66330518 -1.83007812 59.52539062 C-1.86423828 60.41033203 -1.89839844 61.29527344 -1.93359375 62.20703125 C-1.9586499 63.01760986 -1.98370605 63.82818848 -2.00952148 64.66333008 C-2.33701442 67.12150632 -3.08679966 68.79781156 -4.3125 70.9375 C-9.15766908 70.51580678 -11.00268931 68.60903905 -14.125 65 C-14.91519531 64.10410156 -15.70539063 63.20820313 -16.51953125 62.28515625 C-18.3125 59.9375 -18.3125 59.9375 -18.3125 57.9375 C-18.9725 57.9375 -19.6325 57.9375 -20.3125 57.9375 C-21.12686868 56.16752526 -21.9389294 54.39648848 -22.75 52.625 C-23.20246094 51.63886719 -23.65492188 50.65273437 -24.12109375 49.63671875 C-27.45044298 42.09383246 -27.60439889 33.45780809 -24.75 25.6875 C-20.88727453 17.31148476 -14.33306288 9.86059558 -7.3125 3.9375 C-6.6525 3.9375 -5.9925 3.9375 -5.3125 3.9375 C-5.3125 3.2775 -5.3125 2.6175 -5.3125 1.9375 C-2.3125 -0.0625 -2.3125 -0.0625 0 0 Z " fill="#6B8235" transform="translate(251.3125,129.0625)"/>
<path d="M0 0 C0.12375 0.5775 0.2475 1.155 0.375 1.75 C1.00648824 4.02335767 1.88858191 5.9253529 3 8 C1.68 8.33 0.36 8.66 -1 9 C-0.87625 10.918125 -0.87625 10.918125 -0.75 12.875 C-0.71426028 18.49507159 -2.64977313 22.97429165 -5 28 C-7 26 -7 26 -7.125 22.875 C-7.08375 21.92625 -7.0425 20.9775 -7 20 C-8.65 20.33 -10.3 20.66 -12 21 C-9.94181507 13.17889726 -5.26001124 6.06924374 0 0 Z " fill="#788A4A" transform="translate(264,231)"/>
<path d="M0 0 C3.89126347 3.33536869 6.17099741 7.26210499 8 12 C8 12.99 8 13.98 8 15 C4.98968256 15.93423645 4.13349732 16.04449911 1 15 C1 19.29 1 23.58 1 28 C0.67 28 0.34 28 0 28 C-0.10957031 27.2265625 -0.21914062 26.453125 -0.33203125 25.65625 C-1.28539729 19.39348771 -2.5310138 13.83578557 -5 8 C-3.68 8 -2.36 8 -1 8 C-0.67 5.36 -0.34 2.72 0 0 Z " fill="#6F863C" transform="translate(242,239)"/>
<path d="M0 0 C2.3125 0 2.3125 0 5 1 C7.9594218 5.19251422 9.75698362 8.77514779 10 14 C9.34 14.66 8.68 15.32 8 16 C7.67 13.69 7.34 11.38 7 9 C6.01 9 5.02 9 4 9 C4 9.66 4 10.32 4 11 C2.02 11.99 2.02 11.99 0 13 C0 12.34 0 11.68 0 11 C-0.66 10.67 -1.32 10.34 -2 10 C-1.85950482 8.52031676 -1.71245174 7.04125484 -1.5625 5.5625 C-1.48128906 4.73878906 -1.40007812 3.91507813 -1.31640625 3.06640625 C-1 1 -1 1 0 0 Z " fill="#738746" transform="translate(333,206)"/>
<path d="M0 0 C3.79411901 3.79411901 5.66040493 9.99509817 6.2578125 15.28125 C6.25 17.1875 6.25 17.1875 6 20 C2.6690697 20.37010337 1.37268777 20.27461204 -1.375 18.25 C-3 16 -3 16 -2.75 13.75 C-2.5025 13.1725 -2.255 12.595 -2 12 C-1.01 12 -0.02 12 1 12 C0.67 11.34 0.34 10.68 0 10 C0.4375 7.875 0.4375 7.875 1 6 C0.34 5.67 -0.32 5.34 -1 5 C-0.67 3.35 -0.34 1.7 0 0 Z " fill="#798950" transform="translate(237,208)"/>
<path d="M0 0 C0.99 0.66 1.98 1.32 3 2 C2.01 2.66 1.02 3.32 0 4 C-0.35919668 5.66128463 -0.68911632 7.32900023 -1 9 C-1.49113281 9.73992187 -1.98226562 10.47984375 -2.48828125 11.2421875 C-4.3099828 14.56549834 -4.49724472 17.04544548 -4.6875 20.8125 C-4.78611328 22.55466797 -4.78611328 22.55466797 -4.88671875 24.33203125 C-4.92410156 25.21246094 -4.96148437 26.09289062 -5 27 C-4.34 27 -3.68 27 -3 27 C-3 28.65 -3 30.3 -3 32 C-3.99 32.495 -3.99 32.495 -5 33 C-8.41352377 23.8790645 -8.08059997 15.01071181 -4.16796875 6.12109375 C-2.95121479 3.91140344 -1.56386228 1.9761125 0 0 Z " fill="#78874E" transform="translate(232,146)"/>
<path d="M0 0 C2.31 0 4.62 0 7 0 C5.375 5.75 5.375 5.75 2 8 C1.71943824 10.80561762 1.73289132 12.46578263 3 15 C2.91348369 16.54613014 2.75997364 18.08909387 2.5625 19.625 C2.46066406 20.44226563 2.35882813 21.25953125 2.25390625 22.1015625 C2.17011719 22.72804688 2.08632812 23.35453125 2 24 C1.34 24 0.68 24 0 24 C-1 19.125 -1 19.125 -1 18 C-1.65035814 16.65863633 -2.3162955 15.32467746 -3 14 C-2.34 14 -1.68 14 -1 14 C-0.67 9.38 -0.34 4.76 0 0 Z " fill="#687E30" transform="translate(243,254)"/>
<path d="M0 0 C0.33 0.66 0.66 1.32 1 2 C2.32 2 3.64 2 5 2 C6.4606285 4.64738916 7 5.89448334 7 9 C7.99 9.33 8.98 9.66 10 10 C7.36 10.99 4.72 11.98 2 13 C0.875 7.375 0.875 7.375 2 4 C-1.04134491 5.66924071 -1.04134491 5.66924071 -2 8 C-3.32 7.67 -4.64 7.34 -6 7 C-6 6.34 -6 5.68 -6 5 C-5.34 5 -4.68 5 -4 5 C-4 4.34 -4 3.68 -4 3 C-2 1.375 -2 1.375 0 0 Z " fill="#748943" transform="translate(272,224)"/>
<path d="M0 0 C0.99 0.33 1.98 0.66 3 1 C3.625 2.875 3.625 2.875 4 5 C4.33 5.99 4.66 6.98 5 8 C4.01 8.495 4.01 8.495 3 9 C3.99 10.485 3.99 10.485 5 12 C2 12 2 12 -1 10 C-1 9.34 -1 8.68 -1 8 C-1.99 8.33 -2.98 8.66 -4 9 C-4.66 7.35 -5.32 5.7 -6 4 C-3.92446352 3.4465236 -2.15634036 3 0 3 C0 2.01 0 1.02 0 0 Z " fill="#667E31" transform="translate(231,228)"/>
<path d="M0 0 C3 5.75 3 5.75 3 8 C3.66 8.33 4.32 8.66 5 9 C4.01 10.485 4.01 10.485 3 12 C-0.40951722 10.86349426 -1.37636276 9.74186875 -3.6875 7.0625 C-4.31011719 6.35222656 -4.93273437 5.64195312 -5.57421875 4.91015625 C-7 3 -7 3 -7 1 C-2.25 0 -2.25 0 0 0 Z " fill="#728741" transform="translate(339,161)"/>
<path d="M0 0 C2.31 0.33 4.62 0.66 7 1 C7.6875 2.75 7.6875 2.75 8 5 C6.9375 7.25 6.9375 7.25 5 9 C1.8125 9.25 1.8125 9.25 -1 9 C-0.67 6.03 -0.34 3.06 0 0 Z " fill="#687D37" transform="translate(259,219)"/>
<path d="M0 0 C0.99 0 1.98 0 3 0 C4 3 4 3 3 6 C3 6.99 3 7.98 3 9 C0.36 8.34 -2.28 7.68 -5 7 C-5.33 5.68 -5.66 4.36 -6 3 C-5.360625 2.855625 -4.72125 2.71125 -4.0625 2.5625 C-2.02454854 2.18992819 -2.02454854 2.18992819 -1 1 C-0.67 0.67 -0.34 0.34 0 0 Z " fill="#667D2E" transform="translate(271,228)"/>
<path d="M0 0 C0.66 1.32 1.32 2.64 2 4 C2.99 3.67 3.98 3.34 5 3 C9.70491803 1.85245902 9.70491803 1.85245902 12 3 C10.125 6.875 10.125 6.875 9 8 C8.01 9.485 8.01 9.485 7 11 C4.03 8.36 1.06 5.72 -2 3 C-1.34 2.67 -0.68 2.34 0 2 C0 1.34 0 0.68 0 0 Z " fill="#778B49" transform="translate(323,151)"/>
<path d="M0 0 C0.66 0.66 1.32 1.32 2 2 C1.89337766 5.09204795 0.80923696 6.2172579 -1.25 8.5625 C-3.73441718 10.76459705 -6.09178876 12.42125676 -9 14 C-9 10 -9 10 -7 8 C-6.67 7.01 -6.34 6.02 -6 5 C-4.02 5 -2.04 5 0 5 C0 4.34 0 3.68 0 3 C-0.66 2.67 -1.32 2.34 -2 2 C-1.34 1.34 -0.68 0.68 0 0 Z " fill="#6C7F3E" transform="translate(310,209)"/>
<path d="M0 0 C1.01320313 0.00451172 2.02640625 0.00902344 3.0703125 0.01367188 C5.54693827 0.02535407 8.02343657 0.04173418 10.5 0.0625 C10.5 0.3925 10.5 0.7225 10.5 1.0625 C6.25151999 1.45627463 2.00119131 1.8242653 -2.25 2.1875 C-3.4565625 2.29964844 -4.663125 2.41179687 -5.90625 2.52734375 C-7.64648438 2.67236328 -7.64648438 2.67236328 -9.421875 2.8203125 C-10.49018555 2.9145752 -11.55849609 3.00883789 -12.65917969 3.10595703 C-15.5771595 3.06131966 -17.05604884 2.59383649 -19.5 1.0625 C-12.96313616 0.07418844 -6.60422885 -0.05633529 0 0 Z " fill="#818F5D" transform="translate(263.5,383.9375)"/>
<path d="M0 0 C0.33 0 0.66 0 1 0 C3.14285714 7.42857143 3.14285714 7.42857143 4 11 C3.01 11.66 2.02 12.32 1 13 C1 13.66 1 14.32 1 15 C-0.98 15.99 -0.98 15.99 -3 17 C-2.36934845 11.2190275 -1.34844868 5.6556294 0 0 Z " fill="#7F914F" transform="translate(363,266)"/>
<path d="M0 0 C1.58323688 -0.027193 3.16661062 -0.04648306 4.75 -0.0625 C6.07257813 -0.07990234 6.07257813 -0.07990234 7.421875 -0.09765625 C9.7818838 -0.00826198 11.74498524 0.33087179 14 1 C14 3.31 14 5.62 14 8 C13.01 8 12.02 8 11 8 C10.34 6.35 9.68 4.7 9 3 C6.03 2.67 3.06 2.34 0 2 C0 1.34 0 0.68 0 0 Z " fill="#889964" transform="translate(304,175)"/>
<path d="M0 0 C0.99 0.33 1.98 0.66 3 1 C-1.29 5.29 -5.58 9.58 -10 14 C-10.33 13.34 -10.66 12.68 -11 12 C-11.66 12 -12.32 12 -13 12 C-12.67 11.01 -12.34 10.02 -12 9 C-9.6875 7.9375 -9.6875 7.9375 -7 7 C-4.78228936 6.14209817 -4.78228936 6.14209817 -3 5 C-2.67 4.01 -2.34 3.02 -2 2 C-1.34 2 -0.68 2 0 2 C0 1.34 0 0.68 0 0 Z " fill="#7D8E57" transform="translate(355,337)"/>
<path d="M0 0 C0 2 0 2 -2.0625 4.1875 C-5.8355766 6.51556854 -7.78210678 5.99244546 -12 5 C-4.28571429 -1.42857143 -4.28571429 -1.42857143 0 0 Z " fill="#728342" transform="translate(292,180)"/>
<path d="M0 0 C2.36111111 7.08333333 2.36111111 7.08333333 1.1875 10.0625 C0.795625 10.701875 0.40375 11.34125 0 12 C-0.37125 12.7425 -0.7425 13.485 -1.125 14.25 C-1.41375 14.8275 -1.7025 15.405 -2 16 C-3 15 -3 15 -3.25 11.375 C-3.21809755 6.95651081 -1.96214245 3.9242849 0 0 Z " fill="#7A8951" transform="translate(265,310)"/>
<path d="M0 0 C1.67542976 0.28604898 3.34385343 0.61781233 5 1 C5 1.66 5 2.32 5 3 C8.465 2.505 8.465 2.505 12 2 C7.82050327 4.78633115 5.06624674 6 0 6 C-0.38218767 4.34385343 -0.71395102 2.67542976 -1 1 C-0.67 0.67 -0.34 0.34 0 0 Z " fill="#6F863E" transform="translate(279,227)"/>
<path d="M0 0 C0.66 0.33 1.32 0.66 2 1 C1.67 2.32 1.34 3.64 1 5 C-0.32 4.67 -1.64 4.34 -3 4 C-3.20625 4.78375 -3.4125 5.5675 -3.625 6.375 C-5 9 -5 9 -8.125 10.3125 C-9.07375 10.539375 -10.0225 10.76625 -11 11 C-10.67 10.01 -10.34 9.02 -10 8 C-9.34 8 -8.68 8 -8 8 C-8 7.34 -8 6.68 -8 6 C-6.25 4.4921875 -6.25 4.4921875 -4 2.875 C-3.2575 2.33617187 -2.515 1.79734375 -1.75 1.2421875 C-1.1725 0.83226562 -0.595 0.42234375 0 0 Z " fill="#84935E" transform="translate(278,298)"/>
<path d="M0 0 C0.66 0.33 1.32 0.66 2 1 C2 1.66 2 2.32 2 3 C0.329375 3.433125 0.329375 3.433125 -1.375 3.875 C-5.00291092 4.69241329 -5.00291092 4.69241329 -7 7 C-7.99 5.68 -8.98 4.36 -10 3 C-9.34 3 -8.68 3 -8 3 C-8 2.34 -8 1.68 -8 1 C-5.26094655 -0.36952673 -3.02912668 -0.12621361 0 0 Z " fill="#7E8F4F" transform="translate(200,113)"/>
<path d="M0 0 C1.875 0.125 1.875 0.125 4 1 C6.03286122 5.30864296 6.22114809 9.16374379 6.125 13.875 C6.10695312 15.02742188 6.08890625 16.17984375 6.0703125 17.3671875 C6.03550781 18.67042969 6.03550781 18.67042969 6 20 C5.67 20 5.34 20 5 20 C4.89042969 19.2265625 4.78085938 18.453125 4.66796875 17.65625 C3.71460271 11.39348771 2.4689862 5.83578557 0 0 Z " fill="#8F9D6A" transform="translate(237,247)"/>
<path d="M0 0 C0.69609375 0.30164063 1.3921875 0.60328125 2.109375 0.9140625 C2.81578125 1.21054687 3.5221875 1.50703125 4.25 1.8125 C4.78109375 2.05226563 5.3121875 2.29203125 5.859375 2.5390625 C4.869375 3.8590625 3.879375 5.1790625 2.859375 6.5390625 C-0.110625 4.8890625 -3.080625 3.2390625 -6.140625 1.5390625 C-2.140625 -0.4609375 -2.140625 -0.4609375 0 0 Z " fill="#778748" transform="translate(177.140625,361.4609375)"/>
<path d="M0 0 C0 0.66 0 1.32 0 2 C-0.66 2 -1.32 2 -2 2 C-2 2.66 -2 3.32 -2 4 C-3.98 4.99 -5.96 5.98 -8 7 C-8.33 5.68 -8.66 4.36 -9 3 C-5.92807025 0.26939578 -4.09590633 -0.34132553 0 0 Z " fill="#7B8B48" transform="translate(318,308)"/>
<path d="M0 0 C0.33 0.66 0.66 1.32 1 2 C2.32 2 3.64 2 5 2 C4.67 3.32 4.34 4.64 4 6 C3.34 6 2.68 6 2 6 C2 5.34 2 4.68 2 4 C-1.04134491 5.66924071 -1.04134491 5.66924071 -2 8 C-3.32 7.67 -4.64 7.34 -6 7 C-6 6.34 -6 5.68 -6 5 C-5.34 5 -4.68 5 -4 5 C-4 4.34 -4 3.68 -4 3 C-2 1.375 -2 1.375 0 0 Z " fill="#7C8E4D" transform="translate(272,224)"/>
<path d="M0 0 C-2.1875 2.5625 -2.1875 2.5625 -5 5 C-7.8125 4.8125 -7.8125 4.8125 -10 4 C-9.67 2.68 -9.34 1.36 -9 0 C-5.62182575 -0.84454356 -3.32534757 -1.10844919 0 0 Z " fill="#7C8B52" transform="translate(263,195)"/>
<path d="M0 0 C0.66 0 1.32 0 2 0 C5 5.625 5 5.625 5 9 C3.68 9.33 2.36 9.66 1 10 C-1.125 3.375 -1.125 3.375 0 0 Z " fill="#7A8B4D" transform="translate(245,245)"/>
<path d="M0 0 C4.13621084 3.3810038 7.81316569 6.66590534 11 11 C10.01 11.66 9.02 12.32 8 13 C7.67 12.01 7.34 11.02 7 10 C6.01 9.34 5.02 8.68 4 8 C4.33 7.34 4.66 6.68 5 6 C4.360625 5.7525 3.72125 5.505 3.0625 5.25 C1 4 1 4 0.37109375 1.921875 C0.24863281 1.28765625 0.12617188 0.6534375 0 0 Z " fill="#758748" transform="translate(212,209)"/>
<path d="M0 0 C1.15224028 0.92961422 2.29659176 1.8690125 3.4375 2.8125 C4.07558594 3.33457031 4.71367187 3.85664063 5.37109375 4.39453125 C7 6 7 6 8 9 C7.01 8.67 6.02 8.34 5 8 C5 7.34 5 6.68 5 6 C3.68 5.67 2.36 5.34 1 5 C1 4.34 1 3.68 1 3 C0.34 2.67 -0.32 2.34 -1 2 C-0.67 1.34 -0.34 0.68 0 0 Z M-1 6 C1.475 6.495 1.475 6.495 4 7 C2.68 7.33 1.36 7.66 0 8 C-0.33 7.34 -0.66 6.68 -1 6 Z " fill="#79894E" transform="translate(234,230)"/>
<path d="M0 0 C0.33 0.99 0.66 1.98 1 3 C0.01 3.33 -0.98 3.66 -2 4 C-2.33 4.99 -2.66 5.98 -3 7 C-5.06640625 7.73046875 -5.06640625 7.73046875 -7.5625 8.1875 C-8.38878906 8.34605469 -9.21507812 8.50460937 -10.06640625 8.66796875 C-10.70449219 8.77753906 -11.34257812 8.88710938 -12 9 C-9.67350413 6.49280542 -7.17318479 4.67816399 -4.3125 2.8125 C-3.50425781 2.28269531 -2.69601562 1.75289063 -1.86328125 1.20703125 C-1.24839844 0.80871094 -0.63351562 0.41039062 0 0 Z " fill="#859458" transform="translate(318,336)"/>
<path d="M0 0 C0.33 0.99 0.66 1.98 1 3 C0.67 3.66 0.34 4.32 0 5 C-0.66 5 -1.32 5 -2 5 C-2.33 6.65 -2.66 8.3 -3 10 C-3.33 9.34 -3.66 8.68 -4 8 C-5.65 8.66 -7.3 9.32 -9 10 C-7.71937515 8.2925002 -6.38232443 6.62626404 -5 5 C-4.34 5 -3.68 5 -3 5 C-2.690625 4.360625 -2.38125 3.72125 -2.0625 3.0625 C-1 1 -1 1 0 0 Z " fill="#819151" transform="translate(335,321)"/>
<path d="M0 0 C1.5625 1.4375 1.5625 1.4375 3 4 C2.96846324 7.05380927 2.53266629 9.99653222 2 13 C1.34 13 0.68 13 0 13 C-1 8.125 -1 8.125 -1 7 C-1.65035814 5.65863633 -2.3162955 4.32467746 -3 3 C-2.34 3 -1.68 3 -1 3 C-0.67 2.01 -0.34 1.02 0 0 Z " fill="#51661E" transform="translate(243,265)"/>
<path d="M0 0 C2.64 0.66 5.28 1.32 8 2 C8.33 3.98 8.66 5.96 9 8 C4.7257442 6.4169423 2.73468206 3.49431596 0 0 Z " fill="#81945C" transform="translate(236,192)"/>
<path d="M0 0 C0.66 0 1.32 0 2 0 C1.39891424 5.65020618 -0.07528683 10.66164461 -2 16 C-2.33 16 -2.66 16 -3 16 C-2.52013969 10.43109483 -1.70084819 5.32932432 0 0 Z " fill="#81915B" transform="translate(385,282)"/>
<path d="M0 0 C0.33 1.32 0.66 2.64 1 4 C-0.98 4.33 -2.96 4.66 -5 5 C-5.33 5.99 -5.66 6.98 -6 8 C-6.66 8 -7.32 8 -8 8 C-5.18918919 0 -5.18918919 0 0 0 Z " fill="#7D8E52" transform="translate(298,115)"/>
<path d="M0 0 C0.66 0.66 1.32 1.32 2 2 C-2.77357872 4.71391278 -6.34388537 6.56561146 -12 6 C-12 5.34 -12 4.68 -12 4 C-10.7625 3.71125 -9.525 3.4225 -8.25 3.125 C-5.27551258 2.38665206 -2.666144 1.55525067 0 0 Z " fill="#728747" transform="translate(297,320)"/>
<path d="M0 0 C1.65 0 3.3 0 5 0 C5.33 2.31 5.66 4.62 6 7 C3.03 6.505 3.03 6.505 0 6 C0 4 0 2 0 0 Z " fill="#637B2D" transform="translate(130,265)"/>
<path d="M0 0 C4.62 0.66 9.24 1.32 14 2 C14 2.33 14 2.66 14 3 C12.42120045 3.27719381 10.83646933 3.52074143 9.25 3.75 C7.92742187 3.95882813 7.92742187 3.95882813 6.578125 4.171875 C4 4 4 4 0 0 Z " fill="#8B9968" transform="translate(263,327)"/>
<path d="M0 0 C2 3 2 3 1.625 5.6875 C1.41875 6.450625 1.2125 7.21375 1 8 C-0.98 7.01 -2.96 6.02 -5 5 C-4.01 4.67 -3.02 4.34 -2 4 C-2 3.01 -2 2.02 -2 1 C-1.34 0.67 -0.68 0.34 0 0 Z " fill="#7C8E4C" transform="translate(203,218)"/>
<path d="M0 0 C4.875 4.75 4.875 4.75 6 7 C4.35 6.67 2.7 6.34 1 6 C1 6.66 1 7.32 1 8 C0.34 8 -0.32 8 -1 8 C-2.2077558 4.37673261 -1.54311128 3.35853631 0 0 Z " fill="#667C2E" transform="translate(234,215)"/>
<path d="M0 0 C-0.33 1.65 -0.66 3.3 -1 5 C-1.99 5.33 -2.98 5.66 -4 6 C-5.5 4.625 -5.5 4.625 -7 3 C-7 2.34 -7 1.68 -7 1 C-2.25 0 -2.25 0 0 0 Z " fill="#7D9150" transform="translate(339,161)"/>
<path d="M0 0 C5.75 1.625 5.75 1.625 8 5 C6.02 5.33 4.04 5.66 2 6 C0 3 0 3 0 0 Z " fill="#7B8E4B" transform="translate(154,313)"/>
<path d="M0 0 C3 4 3 4 2.6875 6.75 C2.460625 7.4925 2.23375 8.235 2 9 C1.01 9.33 0.02 9.66 -1 10 C-0.67 6.7 -0.34 3.4 0 0 Z " fill="#5F7424" transform="translate(256,268)"/>
<path d="M0 0 C-0.66 1.98 -1.32 3.96 -2 6 C-4.97 5.505 -4.97 5.505 -8 5 C-3.375 0 -3.375 0 0 0 Z " fill="#728444" transform="translate(281,219)"/>
<path d="M0 0 C1.32 0.99 2.64 1.98 4 3 C3.34 4.32 2.68 5.64 2 7 C1.01 7 0.02 7 -1 7 C-1.33 6.34 -1.66 5.68 -2 5 C-1.0625 2.375 -1.0625 2.375 0 0 Z " fill="#7D904C" transform="translate(116,194)"/>
<path d="M0 0 C0.66 0.33 1.32 0.66 2 1 C2 1.99 2 2.98 2 4 C1.34 4 0.68 4 0 4 C-0.309375 4.61875 -0.61875 5.2375 -0.9375 5.875 C-1.625 7.25 -2.3125 8.625 -3 10 C-3.66 10 -4.32 10 -5 10 C-5 9.01 -5 8.02 -5 7 C-4.34 7 -3.68 7 -3 7 C-2.87625 6.030625 -2.7525 5.06125 -2.625 4.0625 C-2.41875 3.051875 -2.2125 2.04125 -2 1 C-1.34 0.67 -0.68 0.34 0 0 Z " fill="#7A8A4F" transform="translate(164,162)"/>
<path d="M0 0 C3.38025595 0.26001969 6.09243904 1.04711963 9.25 2.25 C6.25 4.25 6.25 4.25 3.55078125 4.0078125 C2.56464844 3.79898438 1.57851563 3.59015625 0.5625 3.375 C-0.43136719 3.17132813 -1.42523438 2.96765625 -2.44921875 2.7578125 C-3.20847656 2.59023437 -3.96773438 2.42265625 -4.75 2.25 C-2.75 0.25 -2.75 0.25 0 0 Z " fill="#9AA575" transform="translate(302.75,112.75)"/>
<path d="M0 0 C2.97 0.33 5.94 0.66 9 1 C9 1.66 9 2.32 9 3 C9.99 3.33 10.98 3.66 12 4 C8.35839192 5.21386936 7.66834531 4.6674695 4.3125 3.0625 C3.10013672 2.49208984 3.10013672 2.49208984 1.86328125 1.91015625 C1.24839844 1.60980469 0.63351563 1.30945313 0 1 C0 0.67 0 0.34 0 0 Z " fill="#77874C" transform="translate(201,321)"/>
<path d="M0 0 C0.66 0.66 1.32 1.32 2 2 C1.66555164 5.34448359 0.21127671 7.52337009 -2 10 C-2.66 10 -3.32 10 -4 10 C-3.6875 8.0625 -3.6875 8.0625 -3 6 C-2.01 5.67 -1.02 5.34 0 5 C0 4.34 0 3.68 0 3 C-0.66 2.67 -1.32 2.34 -2 2 C-1.34 1.34 -0.68 0.68 0 0 Z " fill="#818F55" transform="translate(310,209)"/>
<path d="M0 0 C0.66 0 1.32 0 2 0 C2.66 1.32 3.32 2.64 4 4 C2.68 4.99 1.36 5.98 0 7 C-0.99 6.34 -1.98 5.68 -3 5 C-1.625 2.5 -1.625 2.5 0 0 Z " fill="#7F9054" transform="translate(289,206)"/>
<path d="M0 0 C1.15957207 3.47871621 0.77456651 4.34219645 -0.4375 7.6875 C-0.72496094 8.49574219 -1.01242188 9.30398437 -1.30859375 10.13671875 C-1.53675781 10.75160156 -1.76492187 11.36648437 -2 12 C-2.99 10.68 -3.98 9.36 -5 8 C-4.34 7.67 -3.68 7.34 -3 7 C-2.835 6.01 -2.67 5.02 -2.5 4 C-2.335 3.01 -2.17 2.02 -2 1 C-1.34 0.67 -0.68 0.34 0 0 Z " fill="#6F7F41" transform="translate(142,197)"/>
<path d="M0 0 C0.66 0 1.32 0 2 0 C0.94124926 3.40312738 -0.00902154 6.01353231 -2 9 C-2.66 9 -3.32 9 -4 9 C-2.94124926 5.59687262 -1.99097846 2.98646769 0 0 Z " fill="#728141" transform="translate(263,261)"/>
<path d="M0 0 C0.33 0.66 0.66 1.32 1 2 C2.32 1.67 3.64 1.34 5 1 C4.34 2.65 3.68 4.3 3 6 C1.35 6 -0.3 6 -2 6 C-1.34 4.02 -0.68 2.04 0 0 Z " fill="#768B47" transform="translate(266,202)"/>
<path d="M0 0 C1.9453125 0.99609375 1.9453125 0.99609375 4.125 2.4375 C5.21167969 3.14712891 5.21167969 3.14712891 6.3203125 3.87109375 C6.87460937 4.24363281 7.42890625 4.61617187 8 5 C7.67 5.66 7.34 6.32 7 7 C6.01 7.33 5.02 7.66 4 8 C3.67 6.68 3.34 5.36 3 4 C2.360625 3.87625 1.72125 3.7525 1.0625 3.625 C0.381875 3.41875 -0.29875 3.2125 -1 3 C-1.33 2.34 -1.66 1.68 -2 1 C-1.34 0.67 -0.68 0.34 0 0 Z " fill="#869762" transform="translate(334,129)"/>
<path d="M0 0 C3.7952131 1.49097658 5.61042731 3.75700849 8 7 C7.01 7.495 7.01 7.495 6 8 C1.125 3.375 1.125 3.375 0 0 Z " fill="#808E57" transform="translate(164,322)"/>
<path d="M0 0 C1.32 0 2.64 0 4 0 C4 0.66 4 1.32 4 2 C4.99 2.33 5.98 2.66 7 3 C5 5 5 5 2.375 5.125 C1.59125 5.08375 0.8075 5.0425 0 5 C-0.33 4.01 -0.66 3.02 -1 2 C-0.67 1.34 -0.34 0.68 0 0 Z " fill="#647B2C" transform="translate(212,321)"/>
<path d="M0 0 C0.33 0.66 0.66 1.32 1 2 C1.99 2.33 2.98 2.66 4 3 C3.67 3.99 3.34 4.98 3 6 C1.02 6 -0.96 6 -3 6 C-2.01 4.02 -1.02 2.04 0 0 Z " fill="#7F914D" transform="translate(348,304)"/>
<path d="M0 0 C0.99 0.66 1.98 1.32 3 2 C2.39816251 4.02045442 1.72693904 6.02111039 1 8 C0.01 8.495 0.01 8.495 -1 9 C-1.33 6.36 -1.66 3.72 -2 1 C-1.34 0.67 -0.68 0.34 0 0 Z " fill="#7C8F4B" transform="translate(376,303)"/>
<path d="M0 0 C0.33 0.99 0.66 1.98 1 3 C-0.1875 4.5 -0.1875 4.5 -2 6 C-4.6875 6.1875 -4.6875 6.1875 -7 6 C-6.34 5.67 -5.68 5.34 -5 5 C-5 4.34 -5 3.68 -5 3 C-2.5 1.375 -2.5 1.375 0 0 Z " fill="#8A9665" transform="translate(296,286)"/>
<path d="M0 0 C1.32 0.99 2.64 1.98 4 3 C3.34 4.32 2.68 5.64 2 7 C2 6.34 2 5.68 2 5 C1.34 5 0.68 5 0 5 C0 5.99 0 6.98 0 8 C0.66 8.33 1.32 8.66 2 9 C1.01 9 0.02 9 -1 9 C-0.67 6.03 -0.34 3.06 0 0 Z " fill="#7A8C4D" transform="translate(329,227)"/>
<path d="M0 0 C1.32 0.33 2.64 0.66 4 1 C4 1.66 4 2.32 4 3 C4.66 3.33 5.32 3.66 6 4 C5.34 5.32 4.68 6.64 4 8 C0 2.25 0 2.25 0 0 Z " fill="#839259" transform="translate(166,288)"/>
<path d="M0 0 C0 1.65 0 3.3 0 5 C-1.65 5 -3.3 5 -5 5 C-5.33 4.01 -5.66 3.02 -6 2 C-1.125 0 -1.125 0 0 0 Z " fill="#637830" transform="translate(242,222)"/>
<path d="M0 0 C2.86697492 1.28519565 4.97607712 2.57129254 7 5 C7 5.66 7 6.32 7 7 C7.66 7.33 8.32 7.66 9 8 C6 8 6 8 4.39453125 6.7578125 C3.87246094 6.21898437 3.35039062 5.68015625 2.8125 5.125 C2.28269531 4.59132812 1.75289062 4.05765625 1.20703125 3.5078125 C0 2 0 2 0 0 Z " fill="#72804B" transform="translate(190,213)"/>
<path d="M0 0 C0.66 0.99 1.32 1.98 2 3 C1.125 5.6875 1.125 5.6875 0 8 C-0.33 7.34 -0.66 6.68 -1 6 C-1.66 5.67 -2.32 5.34 -3 5 C-2.625 3.0625 -2.625 3.0625 -2 1 C-1.34 0.67 -0.68 0.34 0 0 Z " fill="#7A8F4A" transform="translate(267,183)"/>
<path d="M0 0 C0.66 0.99 1.32 1.98 2 3 C0.75 4.5625 0.75 4.5625 -1 6 C-3.1875 5.6875 -3.1875 5.6875 -5 5 C-3.35 3.35 -1.7 1.7 0 0 Z M2 1 C4 2 4 2 4 2 Z " fill="#748447" transform="translate(239,138)"/>
<path d="M0 0 C1.65 0.33 3.3 0.66 5 1 C3.68 2.32 2.36 3.64 1 5 C-0.32 4.34 -1.64 3.68 -3 3 C-2.01 2.67 -1.02 2.34 0 2 C0 1.34 0 0.68 0 0 Z " fill="#7E8E4E" transform="translate(331,356)"/>
<path d="M0 0 C2.64 0.99 5.28 1.98 8 3 C5 5 5 5 2.3125 4.625 C1.549375 4.41875 0.78625 4.2125 0 4 C0 2.68 0 1.36 0 0 Z " fill="#809058" transform="translate(195,345)"/>
<path d="M0 0 C0.33 0 0.66 0 1 0 C1.33 2.97 1.66 5.94 2 9 C1.01 9 0.02 9 -1 9 C-1.80967438 6.08517222 -2.21845993 4.53886783 -1.0625 1.6875 C-0.711875 1.130625 -0.36125 0.57375 0 0 Z " fill="#708442" transform="translate(354,294)"/>
<path d="M0 0 C0.33 0.66 0.66 1.32 1 2 C1.66 2 2.32 2 3 2 C3 3.98 3 5.96 3 8 C2.01 7.34 1.02 6.68 0 6 C-0.66 6 -1.32 6 -2 6 C-1.34 4.02 -0.68 2.04 0 0 Z " fill="#657B2B" transform="translate(387,217)"/>
<path d="M0 0 C1.32 0.33 2.64 0.66 4 1 C4.33 2.98 4.66 4.96 5 7 C3.0625 6.3125 3.0625 6.3125 1 5 C0.25 2.375 0.25 2.375 0 0 Z " fill="#667C2C" transform="translate(197,216)"/>
<path d="M0 0 C2.6855594 2.6855594 3.06049974 5.37621328 4 9 C3.01 9 2.02 9 1 9 C1 8.01 1 7.02 1 6 C0.34 5.67 -0.32 5.34 -1 5 C-0.67 3.35 -0.34 1.7 0 0 Z " fill="#83935B" transform="translate(237,208)"/>
<path d="M0 0 C2.375 0.3125 2.375 0.3125 5 1 C5.66 1.99 6.32 2.98 7 4 C6.01 4.33 5.02 4.66 4 5 C4 4.34 4 3.68 4 3 C2.35 3 0.7 3 -1 3 C-0.67 2.01 -0.34 1.02 0 0 Z " fill="#86925A" transform="translate(249,129)"/>
<path d="M0 0 C0 1.32 0 2.64 0 4 C-1.65 3.67 -3.3 3.34 -5 3 C-5 3.66 -5 4.32 -5 5 C-6.32 4.67 -7.64 4.34 -9 4 C-3.375 0 -3.375 0 0 0 Z " fill="#839359" transform="translate(183,119)"/>
<path d="M0 0 C0.33 0.99 0.66 1.98 1 3 C0.01 4.485 0.01 4.485 -1 6 C-2.65 5.67 -4.3 5.34 -6 5 C-2.25 1.125 -2.25 1.125 0 0 Z " fill="#76854A" transform="translate(279,245)"/>
<path d="M0 0 C1.32 1.32 2.64 2.64 4 4 C2.35 4.33 0.7 4.66 -1 5 C-1.66 3.68 -2.32 2.36 -3 1 C-2.01 0.67 -1.02 0.34 0 0 Z " fill="#79904D" transform="translate(343,136)"/>
<path d="M0 0 C-2.68841859 2.25245881 -4.64641875 3.88213958 -8 5 C-7.625 3.0625 -7.625 3.0625 -7 1 C-4.53721199 -0.231394 -2.7204945 -0.07159196 0 0 Z " fill="#7B8A54" transform="translate(326,364)"/>
<path d="M0 0 C0.99 0.33 1.98 0.66 3 1 C2.19152271 2.16945792 1.37810888 3.33550461 0.5625 4.5 C0.11003906 5.1496875 -0.34242188 5.799375 -0.80859375 6.46875 C-1.20175781 6.9740625 -1.59492188 7.479375 -2 8 C-2.33 8 -2.66 8 -3 8 C-3 6.35 -3 4.7 -3 3 C-2.01 3 -1.02 3 0 3 C0 2.01 0 1.02 0 0 Z " fill="#7A8C51" transform="translate(361,329)"/>
<path d="M0 0 C0.66 0 1.32 0 2 0 C0.90931332 3.77545388 0.0916909 6.47043472 -3 9 C-2.5020163 5.26512223 -2.12508244 3.18762365 0 0 Z " fill="#839060" transform="translate(373,312)"/>
<path d="M0 0 C0.66 0 1.32 0 2 0 C2.66 1.98 3.32 3.96 4 6 C3.34 6.66 2.68 7.32 2 8 C1.01 5.69 0.02 3.38 -1 1 C-0.67 0.67 -0.34 0.34 0 0 Z " fill="#768849" transform="translate(124,308)"/>
<path d="M0 0 C0.99 0.66 1.98 1.32 3 2 C3 2.66 3 3.32 3 4 C1.02 4.66 -0.96 5.32 -3 6 C-2.42655063 3.13275314 -2.1385485 2.1385485 0 0 Z " fill="#667C2D" transform="translate(263,215)"/>
<path d="M0 0 C0.66 0.99 1.32 1.98 2 3 C1.34 3.66 0.68 4.32 0 5 C0 5.33 0 5.66 0 6 C-1.65 6 -3.3 6 -5 6 C-3.35 4.02 -1.7 2.04 0 0 Z " fill="#899665" transform="translate(156,136)"/>
<path d="M0 0 C2.31 0.33 4.62 0.66 7 1 C5 3 5 3 1.875 3.125 C0.451875 3.063125 0.451875 3.063125 -1 3 C-0.67 2.01 -0.34 1.02 0 0 Z " fill="#879662" transform="translate(279,380)"/>
<path d="M0 0 C2 2 2 2 2 5 C1.01 5 0.02 5 -1 5 C-1.33 5.66 -1.66 6.32 -2 7 C-2.125 4.625 -2.125 4.625 -2 2 C-1.34 1.34 -0.68 0.68 0 0 Z " fill="#657C2E" transform="translate(356,332)"/>
<path d="M0 0 C1.98 1.65 3.96 3.3 6 5 C5.67 5.66 5.34 6.32 5 7 C3.0625 6.3125 3.0625 6.3125 1 5 C0.25 2.375 0.25 2.375 0 0 Z " fill="#808D5A" transform="translate(229,304)"/>
<path d="M0 0 C2.97 1.98 2.97 1.98 6 4 C5.01 4.495 5.01 4.495 4 5 C4 5.66 4 6.32 4 7 C3.01 6.67 2.02 6.34 1 6 C1.33 5.01 1.66 4.02 2 3 C1.34 3 0.68 3 0 3 C0 2.01 0 1.02 0 0 Z " fill="#829356" transform="translate(203,285)"/>
<path d="M0 0 C0.99 0.33 1.98 0.66 3 1 C2.67 2.32 2.34 3.64 2 5 C2.99 5 3.98 5 5 5 C4.67 5.99 4.34 6.98 4 8 C2 6.25 2 6.25 0 4 C0 2.68 0 1.36 0 0 Z " fill="#7C904D" transform="translate(337,268)"/>
<path d="M0 0 C0.33 0.66 0.66 1.32 1 2 C1.66 2 2.32 2 3 2 C2.34 3.98 1.68 5.96 1 8 C0.34 7.34 -0.32 6.68 -1 6 C-0.625 2.875 -0.625 2.875 0 0 Z " fill="#7F9056" transform="translate(307,251)"/>
<path d="M0 0 C0.12375 0.5775 0.2475 1.155 0.375 1.75 C1.00648824 4.02335767 1.88858191 5.9253529 3 8 C2.01 8 1.02 8 0 8 C-1.6875 6 -1.6875 6 -3 4 C-2.01 2.68 -1.02 1.36 0 0 Z " fill="#7F9150" transform="translate(264,231)"/>
<path d="M0 0 C0.33 0.66 0.66 1.32 1 2 C1.66 2.33 2.32 2.66 3 3 C4.0194119 3.98020375 5.02246356 4.97803008 6 6 C4.02 6 2.04 6 0 6 C0 4.02 0 2.04 0 0 Z " fill="#899767" transform="translate(258,222)"/>
<path d="M0 0 C0.99 0.33 1.98 0.66 3 1 C2.34 2.65 1.68 4.3 1 6 C0.01 5.67 -0.98 5.34 -2 5 C-1.34 3.35 -0.68 1.7 0 0 Z " fill="#667C2E" transform="translate(234,206)"/>
<path d="M0 0 C1 3 1 3 0.25 5.125 C-1 7 -1 7 -4 8 C-2.87548273 5.0280615 -1.77706209 2.66559313 0 0 Z " fill="#8A995E" transform="translate(131,165)"/>
<path d="M0 0 C0.268125 0.639375 0.53625 1.27875 0.8125 1.9375 C1.88667752 4.33131686 1.88667752 4.33131686 5 5 C4.34 5.66 3.68 6.32 3 7 C1.35 5.35 -0.3 3.7 -2 2 C-1.34 2 -0.68 2 0 2 C0 1.34 0 0.68 0 0 Z " fill="#819257" transform="translate(323,151)"/>
<path d="" fill="#FFFFFF" transform="translate(0,0)"/>
<path d="" fill="#FFFFFF" transform="translate(0,0)"/>
<path d="" fill="#FFFFFF" transform="translate(0,0)"/>
<path d="" fill="#FFFFFF" transform="translate(0,0)"/>
<path d="" fill="#FFFFFF" transform="translate(0,0)"/>
<path d="" fill="#FFFFFF" transform="translate(0,0)"/>
<path d="" fill="#FFFFFF" transform="translate(0,0)"/>
<path d="" fill="#FFFFFF" transform="translate(0,0)"/>
<path d="" fill="#FFFFFF" transform="translate(0,0)"/>
<path d="" fill="#FFFFFF" transform="translate(0,0)"/>
<path d="" fill="#FFFFFF" transform="translate(0,0)"/>
<path d="" fill="#FFFFFF" transform="translate(0,0)"/>
<path d="" fill="#FFFFFF" transform="translate(0,0)"/>
<path d="" fill="#FFFFFF" transform="translate(0,0)"/>
<path d="" fill="#FFFFFF" transform="translate(0,0)"/>
<path d="" fill="#FFFFFF" transform="translate(0,0)"/>
<path d="" fill="#FFFFFF" transform="translate(0,0)"/>
<path d="" fill="#FFFFFF" transform="translate(0,0)"/>
<path d="" fill="#FFFFFF" transform="translate(0,0)"/>
<path d="" fill="#FFFFFF" transform="translate(0,0)"/>
<path d="" fill="#FFFFFF" transform="translate(0,0)"/>
<path d="" fill="#FFFFFF" transform="translate(0,0)"/>
<path d="" fill="#FFFFFF" transform="translate(0,0)"/>
<path d="" fill="#FFFFFF" transform="translate(0,0)"/>
<path d="" fill="#FFFFFF" transform="translate(0,0)"/>
<path d="" fill="#FFFFFF" transform="translate(0,0)"/>
<path d="" fill="#FFFFFF" transform="translate(0,0)"/>
<path d="" fill="#FFFFFF" transform="translate(0,0)"/>
<path d="" fill="#FFFFFF" transform="translate(0,0)"/>
<path d="" fill="#FFFFFF" transform="translate(0,0)"/>
<path d="" fill="#FFFFFF" transform="translate(0,0)"/>
<path d="" fill="#FFFFFF" transform="translate(0,0)"/>
<path d="" fill="#FFFFFF" transform="translate(0,0)"/>
<path d="" fill="#FFFFFF" transform="translate(0,0)"/>
<path d="" fill="#FFFFFF" transform="translate(0,0)"/>
<path d="" fill="#FFFFFF" transform="translate(0,0)"/>
<path d="" fill="#FFFFFF" transform="translate(0,0)"/>
<path d="" fill="#FFFFFF" transform="translate(0,0)"/>
<path d="" fill="#FFFFFF" transform="translate(0,0)"/>
<path d="" fill="#FFFFFF" transform="translate(0,0)"/>
<path d="" fill="#FFFFFF" transform="translate(0,0)"/>
<path d="" fill="#FFFFFF" transform="translate(0,0)"/>
<path d="" fill="#FFFFFF" transform="translate(0,0)"/>
<path d="" fill="#FFFFFF" transform="translate(0,0)"/>
<path d="" fill="#FFFFFF" transform="translate(0,0)"/>
<path d="" fill="#FFFFFF" transform="translate(0,0)"/>
<path d="" fill="#FFFFFF" transform="translate(0,0)"/>
<path d="" fill="#FFFFFF" transform="translate(0,0)"/>
<path d="" fill="#FFFFFF" transform="translate(0,0)"/>
<path d="" fill="#FFFFFF" transform="translate(0,0)"/>
<path d="" fill="#FFFFFF" transform="translate(0,0)"/>
<path d="" fill="#FFFFFF" transform="translate(0,0)"/>
<path d="" fill="#FFFFFF" transform="translate(0,0)"/>
<path d="" fill="#FFFFFF" transform="translate(0,0)"/>
<path d="" fill="#FFFFFF" transform="translate(0,0)"/>
<path d="" fill="#FFFFFF" transform="translate(0,0)"/>
<path d="" fill="#FFFFFF" transform="translate(0,0)"/>
<path d="" fill="#FFFFFF" transform="translate(0,0)"/>
<path d="" fill="#FFFFFF" transform="translate(0,0)"/>
<path d="" fill="#FFFFFF" transform="translate(0,0)"/>
<path d="" fill="#FFFFFF" transform="translate(0,0)"/>
<path d="" fill="#FFFFFF" transform="translate(0,0)"/>
<path d="" fill="#FFFFFF" transform="translate(0,0)"/>
<path d="" fill="#FFFFFF" transform="translate(0,0)"/>
<path d="" fill="#FFFFFF" transform="translate(0,0)"/>
<path d="" fill="#FFFFFF" transform="translate(0,0)"/>
<path d="" fill="#FFFFFF" transform="translate(0,0)"/>
<path d="" fill="#FFFFFF" transform="translate(0,0)"/>
<path d="" fill="#FFFFFF" transform="translate(0,0)"/>
<path d="" fill="#FFFFFF" transform="translate(0,0)"/>
<path d="" fill="#FFFFFF" transform="translate(0,0)"/>
<path d="" fill="#FFFFFF" transform="translate(0,0)"/>
<path d="" fill="#FFFFFF" transform="translate(0,0)"/>
<path d="" fill="#FFFFFF" transform="translate(0,0)"/>
<path d="" fill="#FFFFFF" transform="translate(0,0)"/>
</svg>
